<svg xmlns="http://www.w3.org/2000/svg" width="900" height="650"><rect width="100%" height="100%" fill="#f3e6b7"/><g stroke="#8b7d57" fill="none" opacity=".8"><path d="M20 160 C200 10 320 300 500 120 S760 300 880 90"/><path d="M50 500 C170 360 340 590 510 380 S760 570 870 430"/><path d="M120 20 C180 170 90 250 220 400 S300 560 330 640"/></g><g stroke="#6bb36d" fill="none" opacity=".8"><path d="M0 280 Q200 220 380 300 T900 260" stroke-width="25"/><path d="M610 0 Q540 190 650 370 T700 650" stroke-width="18"/></g><g stroke="#d41d8c" fill="none" stroke-width="6"><circle cx="180" cy="170" r="34"/><circle cx="390" cy="330" r="34"/><circle cx="680" cy="180" r="34"/><path d="M214 170 L356 315 M424 315 L646 195"/></g><text x="40" y="610" font-size="30" font-family="sans-serif" fill="#222">EXEMPELKARTA 4 – BYT UT DENNA FIL</text></svg>
